<svg id="wave" style="transform:rotate(180deg); transition: 0.3s; margin-top: -1px " viewBox="0 0 1440 170" version="1.1" xmlns="http://www.w3.org/2000/svg"><defs><linearGradient id="sw-gradient-0" x1="0" x2="0" y1="1" y2="0"><stop stop-color="rgb(0, 103, 105)" offset="100%"></stop><stop stop-color="rgb(137, 129, 33)" offset="10%"></stop></linearGradient></defs><path style="transform:translate(0, 0px); opacity:1" fill="url(#sw-gradient-0)" d="M0,0L18.5,8.5C36.9,17,74,34,111,36.8C147.7,40,185,28,222,39.7C258.5,51,295,85,332,107.7C369.2,130,406,142,443,144.5C480,147,517,142,554,119C590.8,96,628,57,665,53.8C701.5,51,738,85,775,107.7C812.3,130,849,142,886,127.5C923.1,113,960,74,997,59.5C1033.8,45,1071,57,1108,76.5C1144.6,96,1182,125,1218,133.2C1255.4,142,1292,130,1329,110.5C1366.2,91,1403,62,1440,45.3C1476.9,28,1514,23,1551,39.7C1587.7,57,1625,96,1662,99.2C1698.5,102,1735,68,1772,45.3C1809.2,23,1846,11,1883,8.5C1920,6,1957,11,1994,25.5C2030.8,40,2068,62,2105,79.3C2141.5,96,2178,108,2215,99.2C2252.3,91,2289,62,2326,48.2C2363.1,34,2400,34,2437,28.3C2473.8,23,2511,11,2548,5.7C2584.6,0,2622,0,2640,0L2658.5,0L2658.5,170L2640,170C2621.5,170,2585,170,2548,170C2510.8,170,2474,170,2437,170C2400,170,2363,170,2326,170C2289.2,170,2252,170,2215,170C2178.5,170,2142,170,2105,170C2067.7,170,2031,170,1994,170C1956.9,170,1920,170,1883,170C1846.2,170,1809,170,1772,170C1735.4,170,1698,170,1662,170C1624.6,170,1588,170,1551,170C1513.8,170,1477,170,1440,170C1403.1,170,1366,170,1329,170C1292.3,170,1255,170,1218,170C1181.5,170,1145,170,1108,170C1070.8,170,1034,170,997,170C960,170,923,170,886,170C849.2,170,812,170,775,170C738.5,170,702,170,665,170C627.7,170,591,170,554,170C516.9,170,480,170,443,170C406.2,170,369,170,332,170C295.4,170,258,170,222,170C184.6,170,148,170,111,170C73.8,170,37,170,18,170L0,170Z"></path></svg>