<svg id="wave" style="transform:rotate(0deg); transition: 0.3s " viewBox="0 0 1440 170" version="1.1" xmlns="http://www.w3.org/2000/svg"><defs><linearGradient id="sw-gradient-0" x1="0" x2="0" y1="1" y2="0"><stop stop-color="rgb(0, 103, 105)" offset="0%"></stop><stop stop-color="rgb(64, 165, 120)" offset="100%"></stop></linearGradient></defs><path style="transform:translate(0, 0px); opacity:1" fill="url(#sw-gradient-0)" d="M0,17L18.5,17C36.9,17,74,17,111,25.5C147.7,34,185,51,222,56.7C258.5,62,295,57,332,65.2C369.2,74,406,96,443,96.3C480,96,517,74,554,56.7C590.8,40,628,28,665,39.7C701.5,51,738,85,775,104.8C812.3,125,849,130,886,130.3C923.1,130,960,125,997,104.8C1033.8,85,1071,51,1108,48.2C1144.6,45,1182,74,1218,79.3C1255.4,85,1292,68,1329,59.5C1366.2,51,1403,51,1440,51C1476.9,51,1514,51,1551,68C1587.7,85,1625,119,1662,124.7C1698.5,130,1735,108,1772,99.2C1809.2,91,1846,96,1883,102C1920,108,1957,113,1994,116.2C2030.8,119,2068,119,2105,113.3C2141.5,108,2178,96,2215,82.2C2252.3,68,2289,51,2326,53.8C2363.1,57,2400,79,2437,90.7C2473.8,102,2511,102,2548,102C2584.6,102,2622,102,2640,102L2658.5,102L2658.5,170L2640,170C2621.5,170,2585,170,2548,170C2510.8,170,2474,170,2437,170C2400,170,2363,170,2326,170C2289.2,170,2252,170,2215,170C2178.5,170,2142,170,2105,170C2067.7,170,2031,170,1994,170C1956.9,170,1920,170,1883,170C1846.2,170,1809,170,1772,170C1735.4,170,1698,170,1662,170C1624.6,170,1588,170,1551,170C1513.8,170,1477,170,1440,170C1403.1,170,1366,170,1329,170C1292.3,170,1255,170,1218,170C1181.5,170,1145,170,1108,170C1070.8,170,1034,170,997,170C960,170,923,170,886,170C849.2,170,812,170,775,170C738.5,170,702,170,665,170C627.7,170,591,170,554,170C516.9,170,480,170,443,170C406.2,170,369,170,332,170C295.4,170,258,170,222,170C184.6,170,148,170,111,170C73.8,170,37,170,18,170L0,170Z"></path></svg>